<?xml version="1.0" standalone="no"?>
<!DOCTYPE svg PUBLIC "-//W3C//DTD SVG 20010904//EN" "http://www.w3.org/TR/2001/REC-SVG-20010904/DTD/svg10.dtd">
<svg version="1.0" xmlns="http://www.w3.org/2000/svg" width="1104.000000pt" height="816.000000pt" viewBox="0 0 1104.000000 816.000000" preserveAspectRatio="xMidYMid meet">
  <metadata>
    Created by potrace 1.15, written by Peter Selinger 2001-2017
  </metadata>
  <g transform="translate(0.000000,816.000000) scale(0.100000,-0.100000)" fill="#000000" stroke="none">
    <path
      d="M0 4080 l0 -4080 3020 0 c1733 0 3020 4 3020 9 0 5 -7 11 -15 15 -16
6 -21 46 -5 46 5 0 6 8 3 17 -6 16 -5 16 10 4 20 -16 23 -41 5 -41 -6 0 -4 -6
7 -13 10 -8 15 -19 11 -25 -4 -7 -3 -12 2 -12 5 0 12 9 15 20 3 11 11 20 17
20 7 0 10 -8 7 -20 -4 -15 0 -20 14 -20 10 0 19 5 19 12 0 9 3 9 12 0 9 -9
568 -12 2455 -12 l2443 0 0 4080 0 4080 -1172 0 -1173 -1 -18 -25 c-10 -14
-16 -31 -13 -39 2 -7 -2 -16 -10 -19 -9 -3 -12 -11 -8 -17 5 -8 3 -9 -6 -4
-10 6 -12 4 -7 -8 5 -13 1 -15 -22 -11 -17 4 -32 1 -36 -6 -5 -9 -1 -10 16 -5
19 6 21 5 12 -5 -6 -7 -25 -13 -41 -13 -17 -1 -28 -6 -25 -10 3 -5 0 -13 -7
-17 -7 -4 -9 -13 -5 -20 6 -10 9 -10 15 0 6 9 12 10 26 1 11 -6 14 -11 8 -11
-7 0 -15 -11 -18 -25 -4 -14 -11 -25 -17 -25 -20 0 3 -20 24 -21 21 0 21 -1 2
-8 -11 -5 -21 -4 -23 0 -6 15 -22 10 -22 -6 0 -18 -37 -38 -55 -31 -8 3 -17 0
-21 -6 -4 -7 -3 -8 4 -4 7 4 12 5 12 3 0 -3 -19 -17 -42 -32 -54 -34 -106
-101 -113 -146 l-6 -34 19 33 c18 32 122 101 122 81 0 -5 -3 -9 -7 -9 -5 0
-28 -18 -53 -41 -25 -22 -35 -35 -23 -29 12 5 25 15 28 20 13 21 24 9 15 -16
-7 -16 -7 -23 0 -19 6 4 8 -7 4 -27 -3 -18 -7 -45 -7 -60 -1 -14 -6 -24 -11
-20 -5 3 -6 -5 -3 -18 3 -12 1 -34 -4 -48 -6 -15 -11 -44 -11 -64 0 -21 -4
-36 -8 -33 -3 2 -3 -17 2 -43 5 -26 11 -63 13 -82 l5 -35 -13 40 c-12 36 -14
38 -19 16 -4 -13 -11 -20 -17 -16 -6 3 -11 1 -11 -4 0 -6 6 -11 13 -11 15 -1
-34 -39 -50 -40 -7 0 -13 -5 -13 -11 0 -5 -4 -7 -10 -4 -5 3 -7 20 -4 38 4 24
3 28 -5 17 -6 -8 -11 -22 -11 -31 0 -20 -34 -51 -45 -42 -4 5 -5 3 -2 -4 4 -6
0 -18 -8 -26 -8 -9 -15 -20 -15 -25 0 -15 -30 -23 -47 -14 -8 5 -20 20 -27 33
-7 13 -18 23 -24 21 -7 -1 -12 5 -12 14 0 23 -32 13 -37 -11 -2 -11 -5 -26 -7
-34 -1 -8 -11 -20 -22 -28 -16 -12 -17 -15 -4 -24 13 -9 13 -10 -1 -6 -11 4
-20 -3 -27 -19 -7 -14 -17 -21 -26 -18 -12 5 -12 10 -1 37 8 18 18 31 22 30 4
-1 9 9 9 22 1 13 34 81 72 152 39 70 83 157 99 193 59 139 229 465 240 463 7
-2 10 4 6 13 -3 8 -2 14 3 13 19 -3 29 2 17 9 -8 5 -7 12 4 27 13 16 15 17 10
3 -4 -10 -2 -18 3 -18 6 0 10 5 10 11 0 5 6 7 13 3 6 -4 9 -4 5 1 -4 4 4 27
17 50 28 47 31 60 13 49 -9 -5 -9 -2 1 9 14 17 26 24 17 9 -3 -5 1 -9 9 -9 10
0 11 5 5 16 -5 10 -3 23 6 36 10 13 14 15 14 4 0 -12 2 -12 9 0 7 11 10 10 14
-5 5 -17 6 -17 4 1 -2 20 -11 20 -4280 23 l-4277 2 0 -4080z m2285 1939 c4 -6
-1 -17 -11 -25 -18 -15 -18 -15 0 -10 25 8 87 -4 80 -15 -3 -5 2 -9 11 -9 12
0 15 5 11 16 -5 14 2 15 49 11 30 -3 53 -1 50 3 -3 5 1 11 7 13 7 3 -6 6 -30
6 -24 1 -41 4 -39 9 3 4 79 8 169 9 89 1 157 0 149 -4 -10 -4 -10 -7 -2 -13 9
-5 9 -13 0 -33 -11 -24 -26 -32 -51 -28 -5 0 -8 -3 -8 -9 0 -5 10 -11 23 -11
18 -1 16 -3 -8 -9 -24 -6 -26 -8 -7 -9 21 -1 33 -31 11 -31 -5 0 -7 -5 -4 -10
14 -22 -6 -50 -36 -50 -16 0 -29 -4 -29 -10 0 -5 11 -10 24 -10 23 0 24 -2 13
-35 l-10 -35 -66 -1 c-36 0 -60 -3 -53 -6 18 -7 15 -23 -5 -24 -12 -1 -10 -4
7 -9 22 -7 19 -8 -17 -10 -24 -1 -49 -3 -55 -4 -17 -3 -39 14 -33 24 2 4 -25
8 -61 9 -36 1 -95 6 -132 11 -37 5 -101 10 -142 11 -53 1 -68 3 -50 9 24 8 23
8 -8 9 -18 1 -31 5 -27 10 3 5 -7 3 -23 -5 -21 -10 -92 -15 -268 -20 -131 -3
-243 -10 -248 -14 -4 -5 34 -7 85 -5 149 6 430 12 362 8 -36 -2 -63 -9 -63
-15 0 -7 18 -9 50 -6 28 3 50 1 50 -3 0 -5 -35 -9 -77 -8 -55 1 -70 3 -53 9
16 5 -13 8 -80 8 -58 0 -114 -3 -125 -8 -13 -6 11 -9 72 -7 57 1 94 -2 97 -8
2 -6 -4 -11 -13 -11 -9 -1 -100 -4 -203 -8 -103 -3 -206 -10 -230 -14 -49 -9
-88 -5 -88 9 0 5 -29 9 -64 9 -94 0 -156 10 -156 26 0 11 39 14 210 14 116 0
210 3 210 8 0 4 -93 7 -207 6 -115 0 -178 1 -140 3 45 3 67 8 67 16 0 7 14 14
32 15 78 6 30 12 -95 12 -115 0 -137 2 -137 15 0 12 15 15 83 13 l82 -2 -80
-6 c-76 -6 -73 -6 48 -8 79 -1 127 2 127 8 0 6 -4 10 -10 10 -12 0 -13 40 -2
56 4 6 18 17 32 24 25 13 25 13 7 -7 -24 -28 -18 -79 9 -75 10 2 28 12 39 23
17 16 18 22 7 39 -10 16 -10 20 2 20 8 0 16 -5 18 -12 3 -9 17 -9 59 0 l54 11
-52 -2 c-28 -1 -49 1 -46 6 2 4 22 7 43 7 21 0 42 5 46 11 5 8 -20 9 -92 4
-55 -4 -120 -8 -146 -9 -27 0 -48 -4 -48 -8 0 -5 -7 -8 -15 -8 -8 0 -12 6 -9
13 4 10 -3 12 -26 9 -16 -2 -33 -9 -36 -14 -3 -5 0 -8 8 -6 7 2 14 -1 15 -7 1
-5 -6 -8 -15 -6 -9 2 -51 7 -92 11 -64 6 -68 7 -30 10 40 3 38 4 -25 10 -38 4
-99 6 -134 4 -40 -2 -61 0 -55 6 11 11 126 16 142 6 6 -3 13 -2 17 4 3 5 0 11
-7 12 -7 0 -17 2 -23 3 -5 2 -18 3 -27 4 -38 2 -16 21 25 21 73 1 115 5 123
13 8 8 -69 11 -234 10 -61 0 -100 3 -95 8 5 5 162 12 349 15 936 17 1154 21
1211 22 35 1 65 -3 68 -9z m8103 -77 l94 -7 39 -45 c22 -25 53 -62 70 -83 l31
-38 -33 20 c-56 32 -183 65 -305 80 -58 7 -186 44 -204 58 -2 2 2 8 10 13 17
11 158 11 298 2z m-2233 -472 c-3 -5 -15 -10 -26 -10 -13 0 -18 -4 -13 -12 5
-8 2 -9 -9 -5 -10 3 -17 2 -17 -4 0 -6 -8 -8 -18 -5 -13 4 -19 1 -19 -9 0 -11
6 -14 16 -9 9 3 25 8 36 11 11 2 0 -5 -25 -15 -42 -18 -65 -42 -40 -42 6 0 9
4 6 8 -3 5 8 9 24 10 29 1 30 0 15 -27 -14 -27 -13 -28 11 -23 13 2 24 8 24
13 0 5 7 9 16 9 23 0 11 -24 -14 -28 -18 -3 -20 -7 -12 -22 8 -15 18 -18 43
-14 l32 5 -27 -16 c-41 -23 -35 -25 25 -8 57 16 64 17 91 15 16 -2 17 -4 5
-18 -12 -15 -11 -16 9 -10 29 9 75 -1 67 -14 -3 -6 1 -10 9 -10 8 0 17 -4 21
-9 10 -17 -43 -38 -100 -40 -14 -1 -16 -4 -8 -9 9 -5 1 -12 -23 -21 -19 -7
-34 -15 -31 -17 2 -3 17 0 32 6 28 10 65 5 65 -9 0 -4 -16 -13 -35 -21 -58
-23 -32 -22 39 0 80 26 121 19 66 -10 -43 -24 -29 -25 33 -4 30 10 58 13 75 9
18 -5 22 -9 12 -13 -48 -16 -62 -23 -58 -27 3 -3 32 4 66 15 67 22 110 18 76
-7 -17 -13 -14 -14 30 -7 43 6 48 5 43 -10 -5 -12 0 -16 18 -16 23 0 65 -34
65 -52 0 -5 20 -29 45 -55 l45 -45 -16 38 c-9 22 -20 44 -24 49 -4 6 -7 18 -7
28 0 16 2 16 23 2 30 -19 35 -19 27 3 -6 15 -5 16 12 2 17 -14 18 -13 12 4 -6
16 -5 17 8 6 8 -7 12 -16 9 -21 -3 -5 -1 -9 4 -9 13 0 37 -50 34 -71 -4 -21
34 -49 66 -49 24 0 24 0 -7 35 -17 19 -33 34 -36 33 -9 -5 -35 53 -29 63 3 5
22 -5 43 -22 23 -18 53 -32 73 -33 18 -2 43 -8 55 -14 12 -7 33 -12 47 -12 14
0 25 -5 23 -11 -1 -6 18 -17 43 -26 25 -8 47 -18 50 -22 4 -6 32 -20 50 -26 3
-1 22 -9 43 -18 35 -15 37 -18 25 -39 -6 -13 -11 -32 -9 -42 2 -16 -2 -18 -29
-13 -17 4 -42 15 -56 26 -13 10 -44 22 -70 26 -25 3 -64 14 -87 23 -41 15
-237 33 -237 21 0 -3 10 -11 23 -17 45 -23 132 -74 137 -81 13 -18 57 -24 220
-26 201 -4 229 -12 325 -89 54 -45 92 -60 82 -33 -3 8 1 14 9 14 7 0 15 -6 18
-14 3 -7 1 -13 -4 -13 -6 0 -10 -5 -10 -11 0 -5 8 -9 18 -7 9 1 23 -2 31 -6
11 -7 13 -5 8 7 -7 20 4 22 21 5 8 -8 12 -8 12 -1 0 18 -27 34 -46 27 -11 -4
-16 -4 -12 1 4 4 2 15 -5 23 -8 11 -8 14 0 9 6 -4 18 0 26 8 12 11 16 12 20 3
2 -9 9 -8 21 5 23 22 33 22 47 -4 l11 -21 22 21 c13 12 33 20 49 19 14 -1 24
-4 22 -6 -2 -2 0 -14 5 -26 8 -23 -10 -72 -23 -60 -10 11 -28 -45 -21 -70 4
-16 -3 -33 -23 -57 -37 -46 -44 -52 -73 -72 l-24 -17 24 -1 c14 0 35 -2 48 -3
28 -3 75 59 99 130 9 26 27 66 40 90 21 38 29 44 51 40 15 -2 39 -5 55 -5 22
-1 27 -6 27 -25 0 -14 -4 -28 -10 -31 -5 -3 -10 -10 -10 -16 0 -14 28 -11 37
4 12 20 60 47 82 47 11 0 25 -9 31 -20 8 -14 8 -20 0 -20 -14 0 -44 -68 -42
-95 3 -70 15 -127 23 -114 5 8 9 23 9 33 0 11 7 26 14 35 8 9 31 34 51 56 31
35 35 37 29 15 -3 -14 -15 -37 -25 -51 -29 -41 -82 -210 -69 -223 13 -13 13
-46 0 -46 -5 0 -10 9 -10 19 0 19 -18 31 -47 31 -12 0 -9 -7 10 -24 26 -24 26
-26 12 -67 -8 -23 -15 -50 -15 -60 0 -35 -38 -49 -135 -49 -108 0 -135 13
-135 64 0 25 4 32 18 32 9 0 41 4 70 8 42 7 52 12 52 28 0 11 10 33 21 50 l22
30 -21 20 c-18 19 -19 23 -6 55 13 29 13 36 1 48 -13 12 -18 10 -41 -15 -14
-17 -26 -34 -26 -39 0 -10 -109 -161 -116 -161 -17 0 -64 33 -79 57 -25 37
-22 61 10 91 15 13 24 26 22 29 -3 2 -188 -72 -411 -166 -387 -163 -459 -187
-569 -196 -38 -4 -49 -1 -54 12 -4 11 -11 1 -20 -31 -17 -57 -26 -57 -13 -1 5
22 9 56 9 75 l-1 35 -7 -35 c-10 -50 -31 -78 -52 -73 -11 3 -17 9 -14 13 3 5
1 11 -5 15 -5 3 -10 26 -10 50 0 51 -19 72 -21 23 -1 -22 -4 -14 -9 23 -7 53
-44 124 -60 114 -10 -6 -30 42 -24 58 3 8 -2 20 -10 27 -9 7 -13 16 -10 21 3
5 -2 9 -11 9 -9 0 -14 4 -11 9 3 5 -2 15 -12 22 -15 13 -16 12 -3 -3 17 -22
-2 -24 -20 -2 -7 8 -20 13 -30 11 -11 -3 -16 1 -15 11 2 9 13 19 26 22 l23 6
-28 18 c-25 16 -43 23 -69 25 -4 1 -6 8 -2 16 3 10 -1 15 -12 15 -9 0 -27 3
-40 6 -23 6 -23 6 -16 -62 4 -38 11 -77 16 -88 7 -13 7 -16 -2 -11 -8 5 -10
-13 -7 -67 3 -40 2 -55 -2 -33 -5 31 -11 41 -28 43 -18 3 -23 10 -24 35 -1 52
-23 192 -30 187 -3 -3 -14 2 -24 10 -11 8 -16 11 -13 5 3 -6 -7 -11 -25 -12
-17 -1 -34 -8 -39 -15 -6 -10 -8 -10 -8 1 0 11 -3 11 -17 0 -9 -8 -19 -13 -22
-11 -3 1 -6 -4 -6 -10 0 -7 7 -12 15 -10 16 3 -21 -30 -54 -49 -15 -9 -18 -8
-14 3 5 12 1 12 -28 -1 -18 -9 -33 -22 -34 -28 0 -7 -4 -13 -8 -13 -15 0 -42
-95 -42 -150 0 -52 26 -156 51 -201 6 -11 8 -23 5 -26 -3 -4 -17 18 -30 48
-25 54 -36 55 -15 2 6 -16 6 -24 1 -18 -32 32 -57 195 -31 195 7 0 9 9 6 21
-5 19 26 112 45 134 12 13 10 27 -3 19 -8 -4 -8 -1 -1 12 14 26 71 83 96 96
12 5 6 -3 -13 -19 -19 -16 -36 -40 -38 -54 -3 -23 -2 -23 24 8 23 25 121 89
130 84 2 0 23 4 48 11 36 10 45 17 45 34 0 36 11 54 31 54 21 0 26 -9 32 -49
3 -21 12 -26 63 -37 33 -6 77 -19 98 -28 22 -9 41 -14 44 -11 3 3 -1 5 -9 5
-12 0 -11 2 1 11 12 8 10 9 -8 4 -16 -5 -22 -3 -20 7 2 8 -5 12 -17 11 -22 -2
-34 14 -150 182 -38 55 -76 107 -84 115 -12 11 -42 17 -106 19 -49 2 -92 5
-95 8 -3 2 37 3 88 1 50 -2 92 0 92 4 0 3 -34 59 -75 123 -73 115 -90 150 -60
125 18 -15 21 1 5 29 -8 16 -6 17 16 13 l26 -5 -18 34 c-17 33 -17 34 2 19 21
-18 -9 38 -93 168 -29 46 -52 91 -51 100 4 24 29 40 106 67 77 27 85 29 77 15z
m-1365 -39 c0 -6 -9 -16 -20 -24 -18 -12 -18 -15 -5 -20 19 -8 19 -37 0 -63
-8 -10 -15 -32 -15 -47 0 -33 -40 -94 -108 -164 -19 -19 -31 -40 -28 -48 2 -7
0 -16 -7 -19 -9 -3 -7 -9 4 -18 12 -9 14 -19 8 -36 -9 -24 -24 -27 -61 -14
-27 10 -108 -21 -108 -41 0 -14 -54 -50 -62 -41 -3 3 -20 -10 -38 -28 -28 -28
-31 -29 -20 -8 7 14 55 85 106 159 68 97 106 164 141 249 41 97 54 118 84 137
50 32 129 48 129 26z m-2275 -484 c-32 -97 -76 -264 -75 -287 0 -3 5 2 11 10
9 12 10 12 5 -4 -4 -10 1 -29 9 -42 9 -13 13 -24 10 -24 -3 0 -2 -8 3 -17 5
-10 6 -27 2 -38 -5 -13 -2 -26 8 -37 8 -10 11 -18 6 -18 -6 0 -10 -10 -11 -22
0 -13 1 -18 4 -11 2 7 11 9 19 6 13 -5 13 -7 2 -14 -10 -6 -8 -9 7 -9 17 0 17
-2 5 -10 -8 -5 -11 -10 -6 -10 5 0 2 -8 -5 -17 -12 -16 -11 -16 8 0 16 14 23
15 29 6 4 -8 3 -10 -5 -5 -7 5 -13 -3 -17 -23 -4 -19 -11 -28 -18 -24 -6 4 -3
-5 7 -20 9 -15 14 -27 10 -27 -3 0 4 -11 17 -25 13 -14 28 -25 33 -25 6 0 0
11 -12 24 -16 17 -19 26 -11 31 7 4 16 3 22 -3 6 -6 17 -8 25 -5 13 5 13 2 -1
-24 -14 -28 -14 -32 3 -47 25 -23 38 -20 16 4 -10 11 -16 20 -13 20 2 0 15
-12 29 -27 13 -14 18 -23 12 -19 -24 13 -13 -4 25 -40 20 -20 29 -31 20 -24
-15 10 -18 10 -18 0 0 -9 -7 -7 -20 5 -11 10 -22 16 -25 13 -9 -9 34 -41 57
-42 26 -2 38 10 38 38 0 11 -5 16 -14 13 -14 -6 -46 21 -46 38 0 5 -11 21 -25
35 -22 23 -23 27 -8 27 10 0 28 -9 41 -20 12 -11 22 -16 22 -10 0 6 -7 16 -15
23 -9 7 -13 15 -10 18 3 3 -1 12 -8 21 -11 14 -10 14 6 2 9 -8 15 -16 12 -19
-3 -3 2 -13 11 -23 23 -25 8 -45 -17 -23 -10 9 -19 12 -19 7 0 -6 7 -16 15
-23 9 -7 13 -15 10 -18 -8 -8 16 -32 27 -26 5 3 20 -4 34 -17 13 -12 24 -17
24 -11 0 6 -5 14 -10 17 -7 4 -7 12 -1 23 7 12 5 23 -7 37 -17 20 -17 20 4 2
11 -9 24 -14 27 -10 10 9 8 25 -2 19 -4 -3 -16 3 -26 14 -10 11 -15 20 -12 20
4 0 10 0 15 0 4 0 7 -6 7 -12 0 -7 5 -13 10 -13 6 0 16 -4 23 -8 6 -5 16 -6
20 -3 11 7 8 -31 -3 -41 -4 -5 -5 -3 -1 4 11 19 -13 26 -30 8 -15 -15 -15 -17
2 -30 10 -7 23 -11 29 -8 5 4 7 2 2 -2 -4 -5 1 -18 10 -29 10 -12 4 -9 -13 7
-29 26 -60 39 -36 15 10 -10 8 -16 -10 -30 l-23 -17 29 -30 c40 -41 58 -40 20
2 l-29 32 33 -29 c24 -23 35 -27 44 -18 8 8 8 15 -2 27 -7 9 -9 15 -4 14 21
-4 35 2 29 11 -10 16 1 11 19 -9 12 -13 14 -21 6 -26 -6 -3 -9 -2 -8 3 2 6 0
10 -4 11 -26 3 -29 -1 -13 -19 10 -11 20 -18 23 -15 3 3 10 -5 17 -18 6 -12
17 -21 24 -19 7 1 10 -2 7 -6 -3 -5 3 -17 14 -27 16 -15 22 -15 35 -5 8 7 15
10 15 6 0 -3 0 -8 0 -11 0 -3 -3 -4 -6 -2 -10 4 -25 -33 -18 -46 5 -8 2 -8 -9
2 -9 7 -15 17 -12 21 3 5 -6 21 -20 37 -13 15 -25 23 -25 17 0 -6 9 -19 19
-28 11 -10 17 -23 15 -30 -6 -16 22 -40 36 -31 6 4 9 13 7 19 -3 7 0 13 7 13
8 0 11 -10 9 -26 -4 -23 -3 -24 7 -8 9 14 15 16 26 6 8 -6 14 -8 14 -4 0 5 9
0 19 -9 15 -13 20 -14 24 -4 4 11 7 11 18 0 8 -7 10 -13 4 -12 -22 5 -25 -1
-14 -22 7 -14 -1 -9 -19 12 -17 19 -31 31 -32 26 0 -5 -6 -3 -14 3 -11 9 -15
8 -20 -5 -5 -13 -9 -14 -21 -4 -8 7 -15 8 -15 2 0 -5 7 -15 15 -22 8 -7 15 -9
15 -4 0 4 13 -4 28 -19 19 -19 31 -24 38 -17 7 7 11 6 11 -4 0 -8 -4 -13 -9
-10 -4 3 -9 -1 -9 -8 -2 -26 -4 -33 -9 -36 -9 -6 -55 15 -69 31 -13 16 -41 13
-41 -5 0 -6 6 -8 14 -5 8 3 22 -4 33 -16 l18 -22 -22 19 c-13 11 -23 14 -23 8
0 -5 -8 -9 -17 -7 -10 1 -17 9 -15 17 1 9 -5 21 -13 28 -12 10 -15 10 -15 -1
0 -7 -15 2 -34 20 -21 21 -32 40 -29 50 4 14 3 14 -6 1 -8 -12 -10 -11 -8 7 1
22 1 22 22 3 26 -24 35 -25 35 -3 0 18 -67 93 -84 93 -6 0 10 -21 34 -47 25
-26 35 -39 23 -29 -27 22 -42 14 -38 -20 3 -27 77 -112 83 -94 2 5 8 8 12 5 5
-3 7 -11 4 -18 -2 -7 5 -22 16 -32 17 -15 20 -16 15 -3 -5 12 -2 16 12 13 19
-3 20 -7 7 -40 -8 -19 -7 -19 10 -2 10 9 22 15 27 11 5 -3 9 -2 8 3 -5 29 1
36 19 20 10 -10 21 -15 24 -12 3 3 11 -3 19 -12 13 -16 12 -17 -3 -4 -10 7
-18 10 -18 6 0 -4 -6 -2 -14 4 -11 10 -16 8 -21 -9 -3 -11 -10 -18 -15 -15 -5
3 -12 1 -15 -5 -7 -12 44 -85 53 -76 3 3 11 1 19 -5 8 -7 13 -8 13 -1 0 15
-26 33 -35 24 -5 -4 -5 -1 -1 6 5 7 3 11 -5 10 -6 -2 -12 7 -14 20 -1 12 1 22
4 23 3 0 15 2 26 4 19 3 19 3 3 -9 -27 -20 -9 -27 21 -9 19 11 21 11 9 1 -14
-12 -15 -17 -5 -28 10 -12 9 -12 -5 -1 -10 7 -18 9 -18 3 0 -12 25 -34 32 -27
3 3 13 -5 24 -17 l19 -23 -22 19 c-13 11 -23 14 -23 8 0 -6 9 -17 20 -25 15
-11 19 -22 15 -52 -3 -21 -7 -41 -10 -43 -2 -3 1 -14 7 -26 7 -11 11 -30 9
-40 -5 -32 10 -107 20 -101 22 14 6 -42 -17 -58 -25 -18 -25 -18 -82 19 -31
21 -93 67 -137 102 -134 108 -651 439 -812 521 -24 12 -43 25 -43 29 0 4 42
102 94 217 111 250 216 500 257 610 19 52 42 92 66 117 34 35 57 42 48 15z
m155 8 c0 -8 8 -15 19 -15 10 0 24 -6 31 -14 6 -8 18 -12 25 -10 7 3 19 -4 25
-16 6 -11 15 -18 21 -15 5 4 9 4 9 1 0 -2 -26 -16 -57 -31 l-57 -26 -66 66
c-54 55 -61 65 -39 60 15 -4 30 -2 33 4 11 17 56 13 56 -4z m1988 -188 c23
-15 42 -34 42 -42 0 -25 -58 -79 -87 -81 -15 -1 -37 -5 -48 -9 -17 -6 -17 -4
4 14 33 29 21 37 -14 9 -44 -35 -56 -32 -39 8 12 29 12 33 -1 28 -8 -4 -15
-10 -15 -15 0 -5 -4 -9 -10 -9 -15 0 0 61 23 96 17 26 26 31 62 30 28 -1 55
-10 83 -29z m-541 -437 c-20 -4 -40 -9 -42 -12 -10 -10 6 -34 34 -51 22 -13
35 -14 62 -7 43 13 49 12 49 -1 0 -5 -5 -7 -12 -3 -6 4 -8 3 -5 -3 4 -6 2 -25
-4 -42 -10 -27 -8 -35 7 -53 17 -18 28 -20 85 -16 l65 5 13 -91 c28 -209 60
-462 61 -481 0 -17 -8 -21 -55 -23 -44 -3 -55 0 -55 12 0 9 4 16 9 16 8 0 9
39 2 233 0 29 -5 46 -11 42 -6 -4 -10 -62 -10 -142 l0 -136 -48 7 c-296 39
-527 46 -668 20 -49 -10 -99 -17 -111 -17 -14 1 -20 -3 -16 -10 4 -6 -2 -8
-15 -5 -14 4 -20 2 -16 -4 4 -6 -2 -8 -16 -3 -14 4 -20 3 -16 -3 6 -10 -23
-26 -32 -17 -3 3 1 5 8 5 7 0 11 3 8 6 -6 6 -108 -43 -108 -52 0 -2 10 0 23 6
20 10 20 9 -3 -9 -27 -22 -45 -28 -35 -11 10 16 -1 11 -16 -7 -12 -15 -12 -16
1 -8 8 5 -5 -12 -30 -36 -50 -50 -61 -54 -36 -12 17 28 17 28 -10 -2 -27 -30
-27 -30 -21 -5 3 14 16 96 28 182 13 86 25 155 28 153 4 -2 7 16 8 38 4 73 8
102 16 115 5 7 7 22 6 35 -2 12 0 31 3 42 4 11 9 37 13 58 4 28 10 37 21 33 9
-3 14 1 14 11 0 9 3 14 6 11 3 -3 -1 -29 -10 -57 -8 -28 -13 -51 -11 -51 14 0
85 33 85 40 0 4 11 5 25 2 37 -7 73 6 80 28 3 11 11 20 16 20 6 0 6 -7 0 -19
-6 -10 -7 -21 -4 -25 10 -10 55 -7 48 3 -3 5 -1 12 5 16 5 3 10 14 10 25 0 10
7 20 15 24 8 3 15 1 15 -4 0 -6 -4 -10 -9 -10 -5 0 -13 -15 -16 -32 -4 -18
-13 -36 -19 -40 -8 -6 -8 -8 1 -8 7 0 10 -7 7 -15 -5 -11 1 -15 17 -15 19 0
21 2 9 10 -18 11 -10 19 12 11 12 -4 14 -11 9 -20 -7 -10 -23 -12 -70 -6 -66
8 -85 22 -23 19 23 -2 28 -1 12 3 -23 5 -24 6 -5 14 18 7 18 8 -5 8 -14 0 -43
-4 -65 -8 -33 -7 -35 -9 -12 -10 25 -1 27 -3 13 -16 -8 -8 -21 -15 -28 -15
-11 0 -11 2 0 9 10 6 7 10 -12 15 -31 8 -127 -30 -123 -48 2 -12 18 -26 30
-26 9 0 5 23 -6 31 -5 3 -2 9 6 12 11 4 15 1 12 -12 -3 -15 3 -18 40 -16 24 0
42 -2 39 -6 -5 -9 75 -23 83 -15 4 3 -3 6 -15 6 -31 0 -53 11 -45 23 4 7 -5 8
-28 4 -26 -5 -30 -4 -19 4 13 9 12 10 -3 5 -23 -7 -44 3 -28 14 7 4 35 1 64
-7 28 -7 56 -11 62 -9 5 3 2 5 -7 5 -10 1 -18 5 -18 9 0 5 21 5 48 1 26 -4 76
-7 112 -7 54 1 59 2 30 8 -30 6 -31 8 -10 10 18 2 20 4 8 7 -30 8 -20 20 12
15 16 -2 27 -8 24 -13 -3 -5 13 -9 35 -9 22 0 43 5 46 10 4 6 10 8 14 6 4 -3
5 8 3 24 -4 27 -6 28 -41 23 -45 -7 -53 -13 -18 -13 26 0 26 -1 10 -20 -21
-24 -41 -27 -22 -3 13 15 11 16 -23 10 -21 -3 -38 -3 -38 1 0 8 44 27 83 36
15 4 25 11 22 16 -4 6 -10 8 -15 5 -4 -3 -11 2 -14 11 -4 10 -2 13 6 8 7 -5 9
-2 5 9 -3 8 1 21 9 27 10 9 14 9 14 1 0 -6 -6 -11 -12 -11 -10 0 -9 -3 1 -9 8
-5 10 -14 6 -21 -6 -10 -2 -12 14 -7 17 4 21 2 17 -9 -3 -8 1 -14 10 -14 10 0
14 6 11 14 -4 10 4 18 21 25 17 6 21 10 10 10 -10 1 -18 5 -18 10 0 5 8 7 19
4 10 -3 22 0 25 6 4 6 1 11 -6 11 -8 0 -6 5 5 11 9 6 15 14 12 19 -3 5 8 16
24 25 36 18 45 19 35 3 -4 -7 -3 -8 5 -4 18 12 2 28 -21 20 -18 -5 -20 -3 -13
17 4 13 9 41 12 61 l5 37 87 4 c47 1 106 3 131 4 l45 1 -38 -8z m4221 -171 c3
-85 1 -103 -14 -120 -32 -36 -84 -19 -84 28 0 27 25 123 47 181 15 39 18 42
32 27 12 -12 17 -41 19 -116z m-4033 -624 c-5 -3 -66 -16 -135 -30 -148 -30
-194 -42 -165 -45 27 -3 -38 -16 -170 -35 -60 -8 -111 -15 -113 -15 -2 0 0 -4
3 -10 10 -15 48 -12 215 20 105 19 158 26 165 19 7 -7 5 -10 -5 -8 -8 1 -22
-1 -30 -4 -33 -13 -190 -47 -227 -49 -5 0 -18 -4 -30 -9 -13 -5 -123 -13 -245
-19 -123 -6 -256 -17 -296 -26 -73 -16 -102 -14 -102 5 0 26 155 82 304 110
89 17 443 65 671 90 84 9 177 12 160 6z m2215 -489 c206 -2 406 -9 444 -15 48
-8 72 -8 76 -1 4 6 17 1 34 -15 15 -14 31 -25 35 -25 5 0 11 -9 14 -21 5 -17
10 -19 29 -12 33 12 1181 4 1189 -8 3 -6 25 -90 48 -187 24 -97 74 -305 112
-462 38 -157 102 -418 141 -580 40 -162 72 -318 72 -347 1 -28 5 -55 10 -60 5
-4 6 7 2 27 -4 29 -3 28 9 -10 8 -25 13 -49 11 -55 -3 -5 -5 -2 -5 8 -1 9 -6
17 -12 17 -6 0 -8 -7 -5 -15 3 -8 9 -22 13 -32 4 -11 3 -14 -5 -9 -14 9 -14 9
-2 -32 7 -28 7 -32 -4 -23 -24 20 -42 3 -38 -34 2 -19 8 -35 13 -35 5 0 9 -7
9 -15 0 -8 -7 -15 -16 -15 -9 0 -33 -9 -53 -19 -32 -17 -68 -33 -81 -35 -3 -1
-11 -5 -19 -10 -8 -5 -16 -4 -22 5 -6 10 -11 11 -16 3 -5 -6 -30 -14 -58 -18
-27 -3 -54 -11 -60 -18 -7 -8 -6 -9 5 -3 12 6 13 5 3 -5 -10 -11 -16 -11 -30
2 -10 9 -56 39 -103 66 -47 28 -94 57 -105 66 l-20 15 20 -4 c74 -14 95 -14
96 3 0 11 3 12 6 5 7 -19 63 -17 63 2 0 8 -8 15 -17 16 -10 0 -74 2 -142 4
-68 2 -129 9 -135 15 -10 10 -11 10 49 15 17 1 39 3 50 4 13 1 16 4 8 12 -6 6
-43 11 -82 12 -61 2 -71 0 -71 -15 0 -25 -35 -41 -60 -28 -27 14 -25 24 3 17
23 -6 56 7 45 18 -9 9 -59 9 -87 0 -16 -5 -21 -4 -17 4 4 6 2 11 -3 11 -6 0
-11 -8 -11 -17 -1 -17 -1 -17 -10 -1 -7 10 -17 14 -32 10 -14 -3 -19 -2 -14 6
4 7 1 12 -8 12 -8 0 -22 10 -31 23 -11 16 -25 22 -52 22 -26 0 -37 5 -39 17
-1 10 1 17 4 17 25 -4 52 2 48 10 -3 5 -31 9 -61 9 -51 -1 -85 13 -85 33 0 5
7 9 15 9 8 0 15 4 15 9 0 5 -12 8 -27 7 -16 -2 -36 1 -45 6 -14 7 -18 5 -18
-11 0 -17 -4 -19 -24 -11 -13 5 -26 7 -29 4 -10 -10 -57 59 -58 84 0 15 -2 34
-4 42 -13 53 -36 201 -40 248 -2 30 -9 58 -15 62 -6 4 -8 13 -5 22 3 8 1 35
-6 59 -13 50 -20 96 -24 157 -2 23 -6 50 -10 60 -4 9 -9 29 -11 45 -2 15 -7
42 -10 60 -3 17 -5 42 -5 55 1 13 -3 21 -7 18 -4 -2 -9 14 -10 37 -3 45 -10
109 -13 117 0 3 -1 12 0 22 1 9 -3 19 -9 23 -5 3 -10 26 -10 49 0 24 -6 59
-13 77 -8 19 -13 41 -12 49 1 8 -4 21 -9 29 -8 11 -8 13 0 8 9 -5 10 3 4 30
-5 20 -7 41 -4 45 3 4 1 8 -5 8 -6 0 -8 6 -6 13 3 7 -3 37 -14 67 -11 30 -20
48 -20 39 -1 -9 19 -147 44 -305 25 -159 52 -336 61 -394 8 -58 39 -257 68
-442 l52 -338 -31 -10 c-17 -5 -61 -8 -98 -6 -48 4 -67 2 -67 -7 0 -8 21 -12
60 -13 62 0 99 -17 67 -30 -18 -7 -23 -30 -7 -36 5 -1 12 -20 14 -41 3 -21 8
-42 11 -47 3 -6 -3 -10 -14 -10 -26 0 -27 -16 -2 -23 14 -3 20 -16 22 -51 l4
-46 -42 0 c-29 0 -64 11 -112 37 -62 32 -74 35 -96 25 -14 -7 -28 -20 -32 -29
-4 -10 -11 -22 -17 -26 -8 -6 -7 -10 2 -14 6 -2 12 -10 12 -16 0 -12 54 -109
96 -172 12 -18 14 -26 5 -21 -11 7 -13 3 -7 -24 l6 -33 -182 7 c-101 3 -232 9
-293 13 -60 3 -108 3 -105 0 3 -3 120 -12 260 -19 l255 -13 -270 -6 c-148 -4
-402 -7 -562 -8 l-293 -1 0 23 c0 12 -12 150 -25 307 -14 157 -39 458 -55 670
-17 212 -35 429 -40 484 -6 54 -10 107 -10 117 0 10 -7 19 -15 19 -11 0 -15
-13 -16 -52 -1 -29 -7 10 -15 87 -7 77 -15 161 -18 188 -4 42 -3 47 15 47 29
0 32 18 22 124 l-9 94 29 6 c16 3 47 6 68 6 l38 0 3 57 c4 68 6 69 136 66 48
-2 256 -5 462 -7z"/>
    <path
      d="M2175 5841 c-36 -3 -37 -5 -15 -11 17 -5 -4 -9 -60 -10 -85 -1 -245
-9 -310 -14 -19 -2 -106 -4 -192 -5 -106 -1 -158 -5 -158 -12 0 -8 45 -9 153
-4 352 16 543 20 554 12 18 -13 102 -11 118 3 8 6 18 9 24 6 5 -3 20 -2 33 3
18 8 7 10 -47 10 -49 1 -65 -2 -55 -9 11 -7 6 -10 -20 -9 -29 0 -31 2 -15 9
11 5 16 9 10 10 -5 1 1 5 15 9 35 10 13 17 -35 12z"/>
    <path
      d="M4705 4089 c22 -23 43 -26 24 -2 -8 10 5 2 28 -16 25 -20 46 -30 54
-25 8 5 11 2 6 -8 -3 -10 7 -28 29 -49 19 -18 34 -28 34 -23 0 5 10 11 22 11
15 2 18 -1 10 -6 -13 -8 -24 -43 -24 -74 1 -16 -1 -17 -15 -5 -14 11 -15 11
-11 -2 2 -8 12 -15 20 -15 9 0 26 -9 37 -19 13 -12 21 -14 21 -7 0 7 5 9 11 5
8 -5 8 -1 0 13 -6 11 -7 24 -3 28 4 5 2 5 -4 2 -6 -4 -20 3 -30 16 -19 22 -19
22 1 6 11 -9 26 -14 33 -12 6 3 12 1 13 -4 3 -39 35 -91 47 -78 3 3 14 -2 24
-12 11 -9 18 -11 18 -5 0 7 -4 12 -10 12 -5 0 -10 5 -10 11 0 5 5 7 10 4 6 -3
10 -2 10 3 0 13 -46 53 -53 46 -3 -4 -18 7 -32 25 -15 17 -29 30 -33 30 -18
-3 -22 3 -13 20 8 14 6 23 -10 37 -11 10 -18 23 -15 30 2 6 -7 22 -21 35 -21
21 -26 22 -36 9 -20 -25 -38 -23 -71 8 -17 16 -42 29 -55 30 -22 1 -22 0 -6
-19z"/>
    <path
      d="M4595 3867 c39 -34 150 -143 248 -241 97 -98 180 -176 184 -172 9 9
-10 41 -24 41 -5 0 -39 31 -74 69 -35 38 -102 110 -149 160 -64 69 -70 84 -10
26 3 -3 16 -13 30 -24 14 -10 -11 16 -55 59 -79 76 -146 131 -131 107 12 -20
-4 -14 -36 13 -16 14 -35 25 -41 25 -7 -1 20 -29 58 -63z"/>
    <path
      d="M10369 1519 c-12 -7 -4 -29 11 -29 5 0 11 8 13 18 4 16 5 16 6 0 1
-14 10 -18 44 -18 31 0 38 -3 27 -10 -9 -6 -10 -10 -3 -10 6 0 15 5 18 10 10
16 52 12 52 -5 0 -12 -14 -15 -67 -15 -39 0 -72 5 -79 13 -8 6 -11 7 -8 1 4
-7 -44 -11 -154 -11 -88 -1 -163 -3 -166 -6 -13 -14 9 -26 31 -17 13 5 27 6
30 3 10 -10 106 -11 106 -1 0 5 7 5 18 -1 17 -9 60 -15 75 -11 4 1 27 3 52 4
34 1 45 -3 46 -14 0 -10 2 -11 6 -2 3 8 27 12 70 12 58 0 64 2 58 18 -4 9 -7
27 -7 39 1 12 -4 25 -11 30 -15 9 -153 12 -168 2z"/>
  </g>
</svg>